<?xml version="1.0" encoding="UTF-8" standalone="no"?>
<svg
   viewBox="315.313 238.718 20.000001 20.000001"
   width="20.833334"
   height="20.833334"
   version="1.1"
   id="svg56"
   sodipodi:docname="Matrix.svg"
   inkscape:version="1.2.1 (9c6d41e, 2022-07-14)"
   xmlns:inkscape="http://www.inkscape.org/namespaces/inkscape"
   xmlns:sodipodi="http://sodipodi.sourceforge.net/DTD/sodipodi-0.dtd"
   xmlns:xlink="http://www.w3.org/1999/xlink"
   xmlns="http://www.w3.org/2000/svg"
   xmlns:svg="http://www.w3.org/2000/svg">
  <sodipodi:namedview
     id="namedview58"
     pagecolor="#505050"
     bordercolor="#ffffff"
     borderopacity="1"
     inkscape:showpageshadow="0"
     inkscape:pageopacity="0"
     inkscape:pagecheckerboard="1"
     inkscape:deskcolor="#505050"
     showgrid="false"
     inkscape:zoom="33.04"
     inkscape:cx="11.470944"
     inkscape:cy="11.228814"
     inkscape:window-width="1920"
     inkscape:window-height="976"
     inkscape:window-x="0"
     inkscape:window-y="25"
     inkscape:window-maximized="1"
     inkscape:current-layer="svg56" />
  <defs
     id="defs52">
    <path
       d="m 316.85,259.26 h 1.39 v 0.46 h -1.93 v -20 h 1.93 v 0.46 h -1.39 z m 17.54,0 h 1.38 v -19.08 h -1.38 v -0.46 h 1.92 v 20 h -1.92 z m -5.02,-13.22 h 0.09 l 0.08,0.01 h 0.08 l 0.09,0.01 0.07,0.01 0.08,0.01 h 0.07 l 0.06,0.01 0.06,0.01 0.05,0.01 0.04,0.01 0.17,0.06 0.16,0.06 0.15,0.07 0.15,0.08 0.13,0.09 0.13,0.1 0.11,0.1 0.11,0.12 0.09,0.12 0.09,0.14 0.08,0.14 0.07,0.14 0.05,0.13 0.05,0.13 0.04,0.15 0.02,0.19 0.02,0.23 0.02,0.31 0.01,0.39 v 0.49 l 0.01,0.61 v 0.74 l 0.02,2.66 h -2 L 329.8,251 v -0.97 l -0.01,-0.37 v -0.31 l -0.01,-0.25 v -0.2 l -0.01,-0.16 -0.01,-0.12 -0.01,-0.1 -0.01,-0.07 -0.02,-0.06 -0.02,-0.08 -0.03,-0.08 -0.03,-0.07 -0.04,-0.07 -0.04,-0.06 -0.04,-0.06 -0.05,-0.05 -0.05,-0.05 -0.06,-0.05 -0.06,-0.04 -0.06,-0.04 -0.05,-0.03 -0.05,-0.02 -0.04,-0.02 -0.04,-0.01 -0.04,-0.02 h -0.05 l -0.05,-0.01 h -0.05 l -0.07,-0.01 h -0.34 l -0.07,0.01 h -0.1 l -0.05,0.01 -0.04,0.01 -0.04,0.01 -0.03,0.01 -0.03,0.02 -0.04,0.02 -0.06,0.03 -0.06,0.04 -0.06,0.03 -0.05,0.04 -0.04,0.04 -0.04,0.04 -0.04,0.04 -0.04,0.05 -0.04,0.05 -0.03,0.05 -0.03,0.06 -0.06,0.11 -0.05,0.09 -0.03,0.11 -0.03,0.11 -0.03,0.16 -0.01,0.19 -0.01,0.26 -0.01,0.32 -0.01,0.41 v 0.51 l -0.01,0.62 -0.01,2.3 h -1.99 l -0.01,-2.47 -0.01,-0.69 v -0.56 l -0.01,-0.45 -0.01,-0.35 -0.01,-0.27 -0.02,-0.2 -0.03,-0.14 -0.04,-0.11 -0.05,-0.08 -0.06,-0.08 -0.08,-0.08 -0.13,-0.11 -0.15,-0.08 -0.16,-0.06 -0.18,-0.03 h -0.19 l -0.18,0.02 -0.19,0.04 -0.17,0.06 -0.17,0.09 -0.15,0.11 -0.12,0.14 -0.02,0.03 -0.03,0.03 -0.02,0.04 -0.03,0.04 -0.02,0.04 -0.02,0.04 -0.03,0.04 -0.02,0.04 -0.02,0.04 -0.02,0.03 -0.01,0.04 -0.09,0.22 -0.01,2.33 -0.01,2.34 h -2 v -7.15 h 1.89 v 0.93 l 0.17,-0.21 0.09,-0.11 0.1,-0.1 0.1,-0.09 0.11,-0.09 0.12,-0.09 0.12,-0.08 0.13,-0.07 0.13,-0.06 0.13,-0.06 0.14,-0.05 0.13,-0.04 0.06,-0.02 0.06,-0.01 0.06,-0.01 0.05,-0.01 0.06,-0.01 h 0.75 l 0.09,0.01 0.08,0.01 h 0.07 l 0.06,0.01 0.07,0.01 0.06,0.02 0.06,0.02 0.06,0.01 0.07,0.03 0.13,0.05 0.13,0.05 0.11,0.05 0.11,0.06 0.09,0.07 0.09,0.07 0.09,0.08 0.08,0.08 0.07,0.09 0.07,0.1 0.07,0.1 0.1,0.17 0.31,-0.31 0.11,-0.1 0.11,-0.1 0.1,-0.09 0.1,-0.07 0.11,-0.08 0.1,-0.06 0.11,-0.06 0.11,-0.05 0.11,-0.04 0.11,-0.04 0.12,-0.03 0.07,-0.02 0.07,-0.01 0.06,-0.02 0.06,-0.01 h 0.07 l 0.06,-0.01 h 0.35 z"
       id="prefix__a" />
  </defs>
  <use
     xlink:href="#prefix__a"
     fill="#959da5"
     id="use54"
     transform="translate(-0.997,-1.002)" />
</svg>
