<svg xmlns="http://www.w3.org/2000/svg" xmlns:xlink="http://www.w3.org/1999/xlink" viewBox="315.313 238.718 24 24" width="25" height="25"><defs><path d="M316.85 259.26h1.39v.46h-1.93v-20h1.93v.46h-1.39v19.08zm17.54 0h1.38v-19.08h-1.38v-.46h1.92v20h-1.92v-.46zm-5.02-13.22h.09l.08.01h.08l.09.01.07.01.08.01h.07l.06.01.06.01.05.01.04.01.17.06.16.06.15.07.15.08.13.09.13.1.11.1.11.12.09.12.09.14.08.14.07.14.05.13.05.13.04.15.02.19.02.23.02.31.01.39v.49l.01.61v.74l.02 2.66h-2l-.02-2.37v-.97l-.01-.37v-.31l-.01-.25v-.2l-.01-.16-.01-.12-.01-.1-.01-.07-.02-.06-.02-.08-.03-.08-.03-.07-.04-.07-.04-.06-.04-.06-.05-.05-.05-.05-.06-.05-.06-.04-.06-.04-.05-.03-.05-.02-.04-.02-.04-.01-.04-.02h-.05l-.05-.01h-.05l-.07-.01h-.34l-.07.01h-.1l-.05.01-.04.01-.04.01-.03.01-.03.02-.04.02-.06.03-.06.04-.06.03-.05.04-.04.04-.04.04-.04.04-.04.05-.04.05-.03.05-.03.06-.06.11-.05.09-.03.11-.03.11-.03.16-.01.19-.01.26-.01.32-.01.41v.51l-.01.62-.01 2.3h-1.99l-.01-2.47-.01-.69v-.56l-.01-.45-.01-.35-.01-.27-.02-.2-.03-.14-.04-.11-.05-.08-.06-.08-.08-.08-.13-.11-.15-.08-.16-.06-.18-.03h-.19l-.18.02-.19.04-.17.06-.17.09-.15.11-.12.14-.02.03-.03.03-.02.04-.03.04-.02.04-.02.04-.03.04-.02.04-.02.04-.02.03-.01.04-.09.22-.01 2.33-.01 2.34h-2v-7.15h1.89v.93l.17-.21.09-.11.1-.1.1-.09.11-.09.12-.09.12-.08.13-.07.13-.06.13-.06.14-.05.13-.04.06-.02.06-.01.06-.01.05-.01.06-.01h.75l.09.01.08.01h.07l.06.01.07.01.06.02.06.02.06.01.07.03.13.05.13.05.11.05.11.06.09.07.09.07.09.08.08.08.07.09.07.1.07.1.1.17.31-.31.11-.1.11-.1.1-.09.1-.07.11-.08.1-.06.11-.06.11-.05.11-.04.11-.04.12-.03.07-.02.07-.01.06-.02.06-.01h.07l.06-.01h.35l.12.01z" id="prefix__a"/></defs><use xlink:href="#prefix__a" fill="#959da5"/></svg>